<?xml version="1.0" encoding="UTF-8"?>
<svg width="213px" height="52px" viewBox="0 0 213 52" version="1.1" xmlns="http://www.w3.org/2000/svg" xmlns:xlink="http://www.w3.org/1999/xlink">
    <title>0F0AC6BB-BF1A-4F5D-A76D-0E9180CE809F</title>
    <g id="home" stroke="none" stroke-width="1" fill="none" fill-rule="evenodd">
        <g id="首頁" transform="translate(-143.000000, -348.000000)">
            <g id="Navigatonal-menu" transform="translate(138.000000, 204.000000)">
                <g id="ad" transform="translate(5.459627, 144.993789)">
                    <polygon id="Container" points="0.530372671 0 211.530373 0 211.530373 51 0.530372671 51 0.530372671 37.4"></polygon>
                    <text id="广告板排行榜" font-family="NotoSansCJKtc-Regular, Noto Sans CJK TC" font-size="24" font-weight="normal" fill="#FFFFFF" fill-opacity="0.76">
                        <tspan x="66.5403727" y="35.105501">广告板排行榜</tspan>
                    </text>
                    <g id="chart-ring" opacity="0.76" transform="translate(28.540373, 14.006211)" fill="#FFFFFF" fill-rule="nonzero">
                        <path d="M11.5,0.5625 C5.45938555,0.5625 0.5625,5.45938555 0.5625,11.5 C0.5625,17.5406145 5.45938555,22.4375 11.5,22.4375 C17.5406145,22.4375 22.4375,17.5406145 22.4375,11.5 C22.4306115,5.46224116 17.5377588,0.569388494 11.5,0.5625 Z M20.8359375,10.7195312 L16.1171875,10.7195312 C15.8525509,9.1281242 14.7858531,7.78573267 13.2953767,7.1684085 C11.8049003,6.55108433 10.1014284,6.74612942 8.7890625,7.684375 L5.453125,4.3484375 C8.12786201,2.07773554 11.8480673,1.49403517 15.0897037,2.8364579 C18.3313401,4.17888062 20.5496761,7.22184281 20.8359375,10.71875 L20.8359375,10.7195312 Z M11.5,14.625 C9.77411016,14.625 8.375,13.2258898 8.375,11.5 C8.375,9.77411016 9.77411016,8.375 11.5,8.375 C13.2258898,8.375 14.625,9.77411016 14.625,11.5 C14.6228478,13.2249976 13.2249976,14.6228478 11.5,14.625 Z M2.12499948,11.5 C2.12425757,9.28424008 2.91247199,7.14060704 4.3484375,5.453125 L7.684375,8.7890625 C6.74705537,10.1015344 6.55243093,11.8044535 7.16944651,13.2945683 C7.78646209,14.7846832 9.12797109,15.8515317 10.71875,16.1171875 L10.71875,20.8359375 C5.86514258,20.4263198 2.13207996,16.3708563 2.12499948,11.5 Z M12.28125,20.8359375 L12.28125,16.1171875 C14.2442635,15.7819334 15.7819334,14.2442635 16.1171875,12.28125 L20.8359375,12.28125 C20.4495266,16.8362329 16.8362329,20.4495266 12.28125,20.8359375 L12.28125,20.8359375 Z" id="形状"></path>
                    </g>
                </g>
            </g>
        </g>
    </g>
</svg>