<?xml version="1.0" encoding="UTF-8"?>
<svg width="194px" height="52px" viewBox="0 0 194 52" version="1.1" xmlns="http://www.w3.org/2000/svg" xmlns:xlink="http://www.w3.org/1999/xlink">
    <title>03E80B36-F007-4601-BCD3-B653DA26008D</title>
    <g id="home" stroke="none" stroke-width="1" fill="none" fill-rule="evenodd">
        <g id="首頁" transform="translate(-143.000000, -492.000000)">
            <g id="Navigatonal-menu" transform="translate(138.000000, 204.000000)">
                <g id="Settings" transform="translate(5.200000, 288.993789)">
                    <polygon id="Container" points="0.79 0 192.79 0 192.79 51 0.79 51 0.79 37.4"></polygon>
                    <text id="管理" font-family="NotoSansCJKtc-Regular, Noto Sans CJK TC" font-size="24" font-weight="normal" fill="#FFFFFF" fill-opacity="0.76">
                        <tspan x="66.8" y="33.5509949">管理</tspan>
                    </text>
                    <g id="settings" opacity="0.76" stroke-linecap="round" stroke-linejoin="round" transform="translate(28.800000, 13.824655)" stroke="#FFFFFF" stroke-width="1.512">
                        <ellipse id="Oval" cx="11.157235" cy="11.1124893" rx="3.04288227" ry="3.03067891"></ellipse>
                        <path d="M18.6630113,14.1431682 C18.3867718,14.7665688 18.5193204,15.4946624 18.9977283,15.9817801 L19.0585859,16.0423937 C19.4395082,16.4213664 19.6535438,16.9356171 19.6535438,17.4718639 C19.6535438,18.0081107 19.4395082,18.5223613 19.0585859,18.9013341 C18.6780872,19.2807287 18.1617659,19.4939059 17.6233598,19.4939059 C17.0849537,19.4939059 16.5686324,19.2807287 16.1881337,18.9013341 L16.127276,18.8407205 C15.6381969,18.3642313 14.9071716,18.2322143 14.2812608,18.5073458 C13.6681498,18.7690634 13.2696271,19.3684194 13.2669667,20.0327876 L13.2669667,20.204526 C13.2669667,21.3203912 12.3587368,22.2249786 11.2383785,22.2249786 C10.1180202,22.2249786 9.20979033,21.3203912 9.20979033,20.204526 L9.20979033,20.1136057 C9.19372047,19.4293499 8.7593137,18.8244207 8.11435272,18.588164 C7.48844191,18.3130324 6.75741663,18.4450494 6.26833747,18.9215386 L6.20747983,18.9821522 C5.82698108,19.3615468 5.31065976,19.574724 4.77225369,19.574724 C4.23384763,19.574724 3.7175263,19.3615468 3.33702756,18.9821522 C2.95610527,18.6031794 2.74206971,18.0889288 2.74206971,17.552682 C2.74206971,17.0164352 2.95610527,16.5021845 3.33702756,16.1232118 L3.3978852,16.0625982 C3.87629311,15.5754805 4.00884165,14.8473869 3.73260225,14.2239863 C3.46983082,13.6133342 2.8680615,13.2164098 2.20101817,13.21376 L2.02858818,13.21376 C0.908229864,13.21376 0,12.3091726 0,11.1933074 C0,10.0774423 0.908229864,9.17285482 2.02858818,9.17285482 L2.11987465,9.17285482 C2.80688563,9.1568494 3.41425066,8.7241848 3.65145872,8.08181041 C3.92769812,7.45840979 3.79514959,6.73031627 3.31674167,6.24319854 L3.25588403,6.18258497 C2.87496174,5.80361219 2.66092618,5.28936156 2.66092618,4.75311475 C2.66092618,4.21686794 2.87496174,3.70261731 3.25588403,3.32364453 C3.63638278,2.94424992 4.1527041,2.73107274 4.69111016,2.73107274 C5.22951623,2.73107274 5.74583755,2.94424992 6.1263363,3.32364453 L6.18719395,3.38425811 C6.6762731,3.86074739 7.40729838,3.99276434 8.03320919,3.71763279 L8.11435272,3.71763279 C8.72746368,3.4559152 9.12598641,2.85655925 9.12864681,2.19219107 L9.12864681,2.0204526 C9.12864681,0.904587443 10.0368767,0 11.157235,0 C12.2775933,0 13.1858232,0.904587443 13.1858232,2.0204526 L13.1858232,2.11137297 C13.1884836,2.77574115 13.5870063,3.37509709 14.2001173,3.63681469 C14.8260281,3.91194624 15.5570533,3.77992928 16.0461325,3.30344001 L16.1069901,3.24282643 C16.4874889,2.86343181 17.0038102,2.65025464 17.5422163,2.65025464 C18.0806223,2.65025464 18.5969437,2.86343181 18.9774424,3.24282643 C19.3583647,3.6217992 19.5724003,4.13604984 19.5724003,4.67229665 C19.5724003,5.20854345 19.3583647,5.72279409 18.9774424,6.10176686 L18.9165848,6.16238044 C18.4381769,6.64949816 18.3056283,7.37759169 18.5818677,8.00099231 L18.5818677,8.08181041 C18.8446392,8.69246252 19.4464085,9.08938699 20.1134518,9.09203672 L20.2858818,9.09203672 C21.4062401,9.09203672 22.31447,9.99662416 22.31447,11.1124893 C22.31447,12.2283545 21.4062401,13.1329419 20.2858818,13.1329419 L20.1945953,13.1329419 C19.527552,13.1355917 18.9257827,13.5325161 18.6630113,14.1431682 Z" id="Path"></path>
                    </g>
                </g>
            </g>
        </g>
    </g>
</svg>