<?xml version="1.0" encoding="UTF-8"?>
<svg width="194px" height="52px" viewBox="0 0 194 52" version="1.1" xmlns="http://www.w3.org/2000/svg" xmlns:xlink="http://www.w3.org/1999/xlink">
    <title>E26EDA8A-A148-442E-BB35-471B17B5B715</title>
    <g id="home" stroke="none" stroke-width="1" fill="none" fill-rule="evenodd">
        <g id="首頁" transform="translate(-143.000000, -420.000000)">
            <g id="Navigatonal-menu" transform="translate(138.000000, 204.000000)">
                <g id="keyword" transform="translate(5.459627, 216.993789)">
                    <polygon id="Container" points="0.530372671 0 192.530373 0 192.530373 51 0.530372671 51 0.530372671 37.4"></polygon>
                    <text id="设定关键字" font-family="NotoSansCJKtc-Regular, Noto Sans CJK TC" font-size="24" font-weight="normal" fill="#FFFFFF" fill-opacity="0.76">
                        <tspan x="66.5403727" y="35">设定关键字</tspan>
                    </text>
                    <g id="key" opacity="0.76" transform="translate(28.540373, 16.000000)" fill="#FFFFFF" fill-rule="nonzero">
                        <circle id="椭圆形" cx="18.140625" cy="4.421875" r="1.171875"></circle>
                        <path d="M12.6046875,14.1875 L8.375,14.1875 L8.375,9.9578125 L13.0859375,5.246875 C13.0705933,5.10258809 13.0627702,4.95760026 13.0625,4.8125 C13.0625,2.22366524 15.1611652,0.125 17.75,0.125 C20.3388348,0.125 22.4375,2.22366524 22.4375,4.8125 C22.4375,7.40133476 20.3388348,9.5 17.75,9.5 C17.6049,9.49972131 17.4599126,9.49189825 17.315625,9.4765625 L12.6046875,14.1875 Z M9.9375,12.625 L11.9578125,12.625 L16.778125,7.8046875 L17.1828125,7.87890625 C17.3696515,7.91596684 17.5595305,7.93558244 17.75,7.9375 C19.0889824,7.9539746 20.2933451,7.12576698 20.7571444,5.86956815 C21.2209438,4.61336931 20.8437355,3.2012322 19.8153021,2.34363667 C18.7868687,1.48604114 17.3299364,1.36871525 16.1775224,2.05068845 C15.0251085,2.73266166 14.4267894,4.06624014 14.6835937,5.38046875 L14.7578125,5.784375 L9.9375,10.6046875 L9.9375,12.625 Z" id="形状"></path>
                        <path d="M20.875,11.0625 L20.875,17.3125 L6.8125,17.3125 L6.8125,1.6875 L9.9375,1.6875 L9.9375,0.125 L2.125,0.125 C1.26241209,0.125861297 0.563361297,0.824912091 0.5625,1.6875 L0.5625,17.3125 C0.563361297,18.1750879 1.26241209,18.8741387 2.125,18.875 L20.875,18.875 C21.7375879,18.8741387 22.4366387,18.1750879 22.4375,17.3125 L22.4375,11.0625 L20.875,11.0625 Z M2.125,1.6875 L5.25,1.6875 L5.25,17.3125 L2.125,17.3125 L2.125,1.6875 Z" id="形状"></path>
                    </g>
                </g>
            </g>
        </g>
    </g>
</svg>