<?xml version="1.0" encoding="UTF-8"?>
<svg width="194px" height="52px" viewBox="0 0 194 52" version="1.1" xmlns="http://www.w3.org/2000/svg" xmlns:xlink="http://www.w3.org/1999/xlink">
    <title>4A1436DD-8E10-4B10-B951-CAA4DBE541FA</title>
    <g id="home" stroke="none" stroke-width="1" fill="none" fill-rule="evenodd">
        <g id="首頁" transform="translate(-143.000000, -275.000000)">
            <g id="Navigatonal-menu" transform="translate(138.000000, 204.000000)">
                <g id="domain" transform="translate(5.459627, 71.993789)">
                    <polygon id="Container" points="0.530372671 0 192.530373 0 192.530373 51 0.530372671 51 0.530372671 37.4"></polygon>
                    <text id="域名排行榜" font-family="NotoSansCJKtc-Regular, Noto Sans CJK TC" font-size="24" font-weight="normal" fill="#FFFFFF" fill-opacity="0.76">
                        <tspan x="66.4153727" y="36">域名排行榜</tspan>
                    </text>
                    <g id="chart" opacity="0.76" transform="translate(29.540373, 15.006211)" fill="#FFFFFF" fill-rule="nonzero">
                        <path d="M3.125,10.9375 C5.44765625,10.9375 6.43125,9.17890625 7.30078125,7.62734375 C8.18359375,6.05 8.9453125,4.6875 10.9375,4.6875 C12.9296875,4.6875 13.6921875,6.05 14.5742187,7.62734375 C15.44375,9.17890625 16.4273437,10.9375 18.75,10.9375 L21.875,10.9375 L21.875,9.375 L18.75,9.375 C17.4117187,9.375 16.8101562,8.421875 15.9375,6.8640625 C15.0070312,5.1984375 13.846875,3.125 10.9375,3.125 C8.028125,3.125 6.86953125,5.1984375 5.9375,6.8640625 C5.0640625,8.42109375 4.4625,9.375 3.125,9.375 L1.5625,9.375 L1.5625,3.55271368e-15 L3.55271368e-15,3.55271368e-15 L3.55271368e-15,20.3125 C3.55271368e-15,21.1754449 0.699555078,21.875 1.5625,21.875 L21.875,21.875 L21.875,20.3125 L20.3125,20.3125 L20.3125,15.625 L18.75,15.625 L18.75,20.3125 L15.625,20.3125 L15.625,14.0625 L14.0625,14.0625 L14.0625,20.3125 L10.9375,20.3125 L10.9375,10.9375 L9.375,10.9375 L9.375,20.3125 L6.25,20.3125 L6.25,14.0625 L4.6875,14.0625 L4.6875,20.3125 L1.5625,20.3125 L1.5625,10.9375 L3.125,10.9375 Z" id="路径"></path>
                    </g>
                </g>
            </g>
        </g>
    </g>
</svg>